<?xml version="1.0" standalone="no"?>
<!DOCTYPE svg PUBLIC "-//W3C//DTD SVG 20010904//EN"
 "http://www.w3.org/TR/2001/REC-SVG-20010904/DTD/svg10.dtd">
<svg version="1.0" xmlns="http://www.w3.org/2000/svg"
 width="512.000000pt" height="512.000000pt" viewBox="0 0 512.000000 512.000000"
 preserveAspectRatio="xMidYMid meet">
<metadata>
Created by potrace 1.14, written by Peter Selinger 2001-2017
</metadata>
<g transform="translate(0.000000,512.000000) scale(0.100000,-0.100000)"
fill="#000000" stroke="none">
<path d="M1148 4498 c-6 -20 -1 -696 6 -713 3 -8 2 -15 -2 -15 -9 0 -7 -54 3
-69 3 -6 3 -11 -2 -11 -10 0 -9 -373 1 -389 4 -6 3 -11 -1 -11 -10 0 -9 -53 2
-69 3 -6 3 -11 -2 -11 -10 0 -9 -373 1 -389 4 -6 3 -11 -1 -11 -10 0 -9 -53 2
-69 3 -6 3 -11 -2 -11 -9 0 -9 -361 1 -385 3 -8 2 -15 -2 -15 -10 0 -8 -452 1
-467 5 -7 4 -13 0 -13 -10 0 -9 -53 2 -69 3 -6 3 -11 -2 -11 -10 0 -9 -373 1
-389 4 -6 4 -11 -1 -11 -13 0 -8 -759 5 -772 9 -9 12 -9 12 1 0 11 3 11 17 0
9 -8 19 -12 22 -10 18 11 51 19 51 13 0 -9 93 -7 116 2 8 3 14 2 14 -2 0 -11
84 -9 92 3 5 7 8 7 8 0 0 -5 16 -10 35 -10 19 0 35 4 35 8 0 5 6 5 12 1 16
-10 117 -11 145 -2 12 4 25 4 27 -1 5 -8 89 -6 113 3 7 3 13 2 13 -3 0 -9 55
-5 71 4 5 4 9 2 9 -3 0 -10 54 -7 71 3 5 4 9 2 9 -3 0 -10 54 -7 71 3 5 4 9 2
9 -3 0 -10 54 -7 71 3 5 4 9 2 9 -3 0 -10 54 -7 71 3 5 4 9 2 9 -3 0 -10 54
-7 71 3 5 4 9 2 9 -3 0 -7 15 -8 51 -3 7 1 2 68 -6 81 -3 6 -1 10 5 10 7 0 8
6 1 19 -6 10 -7 21 -4 25 8 8 7 191 -1 205 -4 6 -3 11 2 11 10 0 8 62 -2 79
-4 5 -3 12 2 15 9 6 8 47 -2 64 -4 7 -2 12 4 12 7 0 8 6 0 19 -5 11 -7 22 -3
24 7 4 8 62 3 77 -1 3 -1 10 0 15 6 31 5 193 -2 208 -5 9 -5 17 -1 17 7 0 9
95 3 110 -1 3 -1 10 0 15 6 22 2 184 -4 194 -4 6 -2 11 4 11 7 0 8 6 0 19 -6
12 -6 22 -1 25 5 3 7 15 4 26 -5 18 0 20 38 20 230 1 477 8 485 12 5 4 29 9
54 13 24 4 52 11 62 16 10 5 18 7 18 4 0 -4 14 0 95 31 11 4 27 8 35 10 8 2
16 7 18 13 2 5 10 7 18 4 8 -3 14 1 14 8 0 7 3 10 6 6 14 -13 217 110 207 126
-3 5 -1 7 4 4 19 -12 138 86 127 104 -3 5 -1 8 4 7 15 -5 73 52 66 64 -4 6 -3
8 4 4 12 -7 44 33 36 46 -3 5 0 7 6 6 7 -2 17 6 23 17 7 11 18 24 25 28 7 5
10 12 7 18 -4 5 1 12 9 15 9 3 16 12 16 19 0 7 4 15 8 17 15 5 62 109 55 120
-3 6 -1 8 4 5 6 -4 16 5 21 21 6 15 20 52 31 82 12 30 19 61 16 68 -3 7 -1 11
4 8 7 -5 16 29 37 139 3 17 8 68 11 115 l5 85 -99 -1 c-54 0 -104 -4 -110 -7
-7 -4 -14 -4 -16 0 -6 10 -1169 9 -1184 0 -7 -4 -14 -4 -16 0 -3 5 -36 8 -74
7 l-69 0 -3 40 c-1 22 -4 43 -7 48 -3 4 -1 8 4 8 6 0 8 9 5 20 -5 19 0 20 80
20 59 0 87 4 90 13 4 10 6 10 6 0 1 -7 13 -13 27 -13 17 0 23 4 18 13 -6 10
-4 10 7 0 7 -7 22 -13 34 -13 12 0 27 6 34 13 9 8 12 8 7 0 -9 -17 336 -17
346 0 6 9 8 9 8 0 0 -7 12 -13 26 -13 17 0 23 4 18 13 -6 10 -4 10 7 0 7 -7
22 -13 34 -13 12 0 27 6 34 13 11 10 13 10 7 0 -4 -8 -1 -13 8 -13 8 0 17 6
19 13 4 10 6 10 6 0 1 -7 13 -13 27 -13 17 0 23 4 18 13 -6 10 -4 10 7 0 17
-17 51 -17 68 0 11 9 12 9 7 0 -5 -10 46 -12 229 -12 172 0 235 4 235 12 0 9
2 9 8 0 5 -8 34 -12 80 -11 l72 1 0 63 c0 35 -4 65 -9 68 -4 3 -6 17 -3 31 2
14 -2 33 -9 42 -8 10 -9 14 -2 10 9 -6 9 1 1 25 -5 18 -11 44 -13 58 -2 14 -4
26 -5 28 -1 1 -3 5 -4 10 -13 53 -42 120 -49 115 -6 -3 -7 -1 -3 5 10 16 -44
133 -57 125 -5 -3 -7 -1 -3 5 3 6 -1 18 -10 26 -8 9 -12 16 -9 16 9 0 -15 39
-69 110 -64 85 -88 110 -100 103 -6 -3 -8 -3 -4 2 11 11 -12 36 -25 28 -5 -3
-7 -1 -4 5 4 5 -11 25 -34 44 -22 18 -53 43 -67 56 -45 39 -102 73 -113 67 -5
-4 -8 -2 -7 4 2 6 -13 20 -32 31 -75 40 -142 70 -150 65 -5 -3 -10 0 -12 6 -2
6 -16 12 -31 12 -15 1 -27 5 -27 8 0 10 -87 32 -99 24 -6 -3 -11 -2 -11 3 0
11 -34 18 -125 28 -33 3 -62 7 -64 10 -2 2 -13 -1 -24 -7 -12 -7 -17 -7 -13
-1 8 13 -47 10 -56 -3 -5 -7 -8 -7 -8 0 0 12 -178 14 -197 2 -6 -4 -14 -3 -17
2 -4 5 -288 10 -680 10 -544 2 -674 -1 -678 -11z m1912 -54 c0 -8 -19 -13 -24
-6 -3 5 1 9 9 9 8 0 15 -2 15 -3z m390 -188 c0 -2 -8 -10 -17 -17 -16 -13 -17
-12 -4 4 13 16 21 21 21 13z m-2245 -824 c-3 -3 -11 0 -18 7 -9 10 -8 11 6 5
10 -3 15 -9 12 -12z m970 -232 c3 -6 -1 -7 -9 -4 -18 7 -21 14 -7 14 6 0 13
-4 16 -10z m26 -47 c13 -16 12 -17 -3 -4 -17 13 -22 21 -14 21 2 0 10 -8 17
-17z m-996 -201 c-3 -3 -11 0 -18 7 -9 10 -8 11 6 5 10 -3 15 -9 12 -12z
m1375 -66 c0 -2 -8 -10 -17 -17 -16 -13 -17 -12 -4 4 13 16 21 21 21 13z
m-1293 -331 c0 -8 -4 -12 -9 -9 -5 3 -6 10 -3 15 9 13 12 11 12 -6z m1438 -3
c-3 -3 -11 0 -18 7 -9 10 -8 11 6 5 10 -3 15 -9 12 -12z m-145 -306 c0 -2 -8
-10 -17 -17 -16 -13 -17 -12 -4 4 13 16 21 21 21 13z m-1375 -734 c-3 -3 -11
0 -18 7 -9 10 -8 11 6 5 10 -3 15 -9 12 -12z m449 -870 c3 -5 -1 -9 -9 -9 -8
0 -12 4 -9 9 3 4 7 8 9 8 2 0 6 -4 9 -8z"/>
<path d="M2529 1823 c0 -10 -1 -287 -2 -616 l-2 -597 721 0 c786 0 737 -4 729
56 -2 16 -6 55 -9 87 -17 180 -94 386 -206 553 -63 93 -208 241 -301 307 -36
26 -106 67 -155 92 -187 94 -347 130 -606 134 -157 2 -168 1 -169 -16z"/>
</g>
</svg>
